<?xml version="1.0" encoding="UTF-8"?>
<svg xmlns="http://www.w3.org/2000/svg" viewBox="0 0 569.96 615.72">
  <defs>
    <style>
      .cls-1 {
        fill: #19122d;
      }

      .cls-2 {
        fill: #93d4ee;
      }

      .cls-3 {
        fill: #1d0032;
      }

      .cls-4 {
        fill: #aadcf2;
      }

      .cls-5 {
        fill: #4d256e;
      }

      .cls-6 {
        fill: #c2e5f1;
      }

      .cls-7 {
        fill: #f4d234;
      }
    </style>
  </defs>
  <g id="_图层_3" data-name="图层 3">
    <path class="cls-5" d="M498.31,514.77l-141.76,81.62c-44.39,25.77-98.8,25.77-143.19,0l-141.76-81.62C27.21,489,0,441.75,0,390.2v-164.67c0-51.55,27.21-98.8,71.6-124.58L213.36,19.33c44.39-25.77,98.8-25.77,143.19,0l141.76,81.62c44.39,25.77,71.6,73.03,71.6,124.58v164.67c1.43,51.55-25.77,98.8-71.6,124.58Z"/>
  </g>
  <g id="_图层_1" data-name="图层 1">
    <g>
      <path class="cls-2" d="M337.97,348.33c-4.64.07-8.45-3.64-8.51-8.27-.03-1.97.64-3.89,1.89-5.42l30.04-41.08c2.81-3.78,8.15-4.57,11.93-1.77,3.78,2.81,4.57,8.15,1.77,11.93l-30.04,41.08c-1.53,2.16-3.98,3.46-6.63,3.53"/>
      <path class="cls-6" d="M290.7,408.85c-4.64.07-8.45-3.64-8.51-8.27-.03-1.97.64-3.89,1.89-5.42l30.04-41.08c2.81-3.78,8.15-4.57,11.93-1.77,3.78,2.81,4.57,8.15,1.77,11.93h0l-30.04,41.08c-1.53,2.16-3.98,3.46-6.63,3.53"/>
      <path class="cls-2" d="M349.01,406.64c-4.64.07-8.45-3.64-8.51-8.27-.03-1.97.64-3.89,1.89-5.42l30.04-40.64c2.81-3.78,8.15-4.57,11.93-1.77,3.78,2.81,4.57,8.15,1.77,11.93l-30.04,41.08c-1.53,2.16-3.98,3.46-6.63,3.53"/>
      <path class="cls-4" d="M299.1,472.46c-4.64.07-8.45-3.64-8.51-8.27-.03-1.97.64-3.89,1.89-5.42l30.04-41.08c2.81-3.78,8.15-4.57,11.93-1.77,3.78,2.81,4.57,8.15,1.77,11.93l-30.04,41.08c-1.53,2.16-3.98,3.46-6.63,3.53"/>
      <path class="cls-2" d="M240.34,427.4c-4.64.07-8.45-3.64-8.51-8.27-.03-1.97.64-3.89,1.89-5.42l30.04-41.08c2.81-3.78,8.15-4.57,11.93-1.77,3.78,2.81,4.57,8.15,1.77,11.93h0l-30.48,41.08c-1.62,2.28-4.27,3.61-7.07,3.53M243.88,474.67c-4.64.07-8.45-3.64-8.51-8.27-.03-1.97.64-3.89,1.89-5.42l30.04-41.08c2.81-3.78,8.15-4.57,11.93-1.77,3.78,2.81,4.57,8.15,1.77,11.93h0l-30.04,41.08c-1.53,2.16-3.98,3.46-6.63,3.53"/>
      <path class="cls-2" d="M362.71,280.29c-.01,34.4,27.86,62.3,62.26,62.31,34.4.01,62.3-27.86,62.31-62.26v-.05c0-34.4-27.89-62.29-62.29-62.29s-62.29,27.89-62.29,62.29h0Z"/>
      <path class="cls-4" d="M285.4,218.45v-2.65c-.23-35.86,28.66-65.12,64.52-65.35,35.86-.23,65.12,28.66,65.35,64.52.08,12.5-3.45,24.75-10.16,35.29,18.25,27.42,10.83,64.44-16.59,82.69-21.66,14.42-50.17,13.14-70.44-3.18-27.08,21.21-66.23,16.45-87.44-10.63-21.21-27.08-16.45-66.23,10.63-87.44,11.07-8.67,24.76-13.34,38.83-13.25h5.3Z"/>
    </g>
  </g>
  <g id="_图层_4" data-name="图层 4">
    <g id="_图层_5" data-name="图层 5">
      <g>
        <path class="cls-1" d="M112.69,342.92c15.84-4.62,27.47-7.39,34.9-8.3,11.6-1.42,21.2.19,28.81,4.83,7.6,4.65,11.91,11.12,12.93,19.42,1.02,8.3-1.69,16.57-8.13,24.82-6.44,8.24-14.96,15.13-25.55,20.68-1.31.72-1.92,1.38-1.85,1.99.11.94,6.39,5.09,18.82,12.47,12.43,7.38,23.76,13.42,34,18.14,2.9,1.32,4.51,3.33,4.84,6.02.22,1.76-.49,3.62-2.12,5.58-1.63,1.96-3.24,3.03-4.84,3.23-3.25.4-8.76-1.66-16.54-6.17-7.78-4.51-15.89-9.55-24.33-15.1-18.26-11.88-28.36-17.75-30.29-17.63-3.75.35-6.46.15-8.11-.59-1.65-.75-2.63-2.33-2.93-4.75-.26-2.09.51-4.04,2.3-5.85,1.79-1.81,4.03-2.88,6.72-3.21.93-.11,2.44-.16,4.5-.14,2.07.08,3.61.06,4.6-.06,4.4-.54,11.52-4.74,21.35-12.58s14.21-16.2,13.12-25.05c-.57-4.67-3.45-8.39-8.61-11.17-5.17-2.77-11.44-3.7-18.8-2.8-5.5.67-10.95,1.73-16.35,3.18s-8.83,2.54-10.27,3.27c-1.45.74-2.49,2.3-3.15,4.7-.66,2.4-1.33,9.86-2.02,22.39-.69,12.53-.99,24.32-.89,35.35.1,11.04.46,19.12,1.09,24.23.49,3.96,1.18,7.36,2.09,10.21.85,2.85,1.39,5.16,1.6,6.92.2,1.65-.45,3.46-1.97,5.43-1.52,1.97-3.29,3.08-5.33,3.33-5.77.71-9.23-3.61-10.38-12.96-2.71-22.05-2.43-51.86.82-89.43.15-1.97.2-3.12.16-3.45s-.29-.8-.76-1.41c-2.62-3.19-4.01-5.37-4.15-6.52-.26-2.09.54-4.03,2.38-5.82,1.84-1.79,3.59-2.79,5.24-2.99l7.09-.2Z"/>
        <path class="cls-1" d="M279.19,320.97c.54.32.96,1.64,1.24,3.95.29,2.36.26,4.18-.08,5.45l1.5,3.33c2.61,6.27,5.05,11.38,7.32,15.34,2.89,5.34,5.8,11.09,8.73,17.26,6.71,14.19,13.36,26.23,19.96,36.1,6.6,9.88,12.36,16.69,17.29,20.44,3.08,2.36,5.03,4,5.84,4.94.81.93,1.3,2.09,1.47,3.46.3,2.42-.26,4.57-1.68,6.44-1.42,1.88-3.25,2.95-5.5,3.23-7.04.86-16.92-9.17-29.65-30.1-5.09-8.25-8.04-12.32-8.87-12.22-2.64.32-8.22,1.82-16.74,4.48-8.52,2.67-16.25,5.51-23.19,8.54-3.97,1.77-6.5,2.72-7.6,2.86-1.37.17-2.89-.34-4.54-1.54-.3-.19-.65-.26-1.03-.21-1.21.15-3.38,4.04-6.52,11.68-5.15,12.63-8.45,20.2-9.9,22.69-1.45,2.49-3.22,3.87-5.31,4.13-1.48.18-3.38-.47-5.68-1.94-2.3-1.48-3.56-3.12-3.79-4.93-.22-1.76.48-4.26,2.09-7.5,1.61-3.24,4.91-9.77,9.9-19.59,8.91-17.45,16.23-33.69,21.98-48.74,9.06-23.94,14.94-38.13,17.63-42.56,2.69-4.43,4.89-6.75,6.59-6.96,3.63-.45,6.47.21,8.53,1.97ZM292.27,385.92c-2.47-4.16-6.29-11.87-11.46-23.12-5.6-11.98-9.12-19.25-10.55-21.81-2.24,6.75-5.8,16.37-10.69,28.86l-11.46,30.12c1.05-1.02,4.01-2.11,8.89-3.27,3.75-.85,6.98-1.75,9.71-2.7,14.64-4.87,23.15-7.56,25.55-8.08Z"/>
        <path class="cls-1" d="M376.1,317.95c-.07,2.18-.97,10.08-2.7,23.69-.83,6.41-1.24,11.76-1.21,16.06.02,2.9-.01,6.06-.09,9.47-.47,14.35-.39,24.1.25,29.27.95,7.75,2.35,15.31,4.21,22.67,1.08,4.28.7,7.51-1.15,9.69-1.85,2.18-3.83,3.4-5.91,3.66-2.97.36-5.24-1.05-6.8-4.23-1.56-3.18-2.8-8.49-3.71-15.91-.95-7.75-1.17-18.61-.65-32.57.13-5.26.19-8.42.17-9.48-.12-1.88-.13-3.83-.05-5.85.04-1.96.02-3.91-.05-5.85-.3-5.15-.13-11.96.51-20.41.45-6.36.66-11.94.62-16.74-.02-3.35.15-5.63.5-6.84.35-1.21,1.48-2.64,3.37-4.26,1.89-1.63,3.36-2.51,4.41-2.63,2.31-.28,4.18.62,5.61,2.7,1.43,2.08,2.32,4.61,2.69,7.58Z"/>
        <path class="cls-1" d="M493.32,393.13c1.75-13.5,3.06-30,3.93-49.5.87-19.5.84-33.05-.09-40.63-.49-4.01-.51-6.77-.05-8.28.46-1.51,1.62-2.91,3.5-4.2,1.88-1.29,4-2.08,6.36-2.37,1.54-.19,2.99.75,4.36,2.81,1.37,2.06,2.24,4.61,2.61,7.63.29,2.37-.08,6.65-1.1,12.86-1.79,14.06-3.21,30.66-4.27,49.79-1.06,19.13-1.41,30.16-1.05,33.07.72,5.88,1.26,9.59,1.62,11.1.57,2.83-.07,5.2-1.93,7.1-1.86,1.9-4.47,3.06-7.82,3.47-1.98.24-3.34.15-4.1-.29-.75-.44-2.36-1.73-4.83-3.89s-4.12-4.32-4.94-6.51c-.7-2.03-2.71-4.58-6.04-7.63-18.32-18.29-35.28-38.64-50.86-61.06-2.02,13.14-3.18,31.17-3.49,54.09l-.37,14.03c-.05,1.4.19,4.18.73,8.33.54,4.15.66,6.96.37,8.45-.29,1.49-1.19,3.26-2.7,5.31-1.51,2.05-3.06,3.18-4.65,3.38-3.68.45-6.05-.86-7.1-3.94s-1.68-5.47-1.89-7.18c-.49-4.01-.09-10.71,1.22-20.08,1.31-9.31,2.59-23.56,3.84-42.75,1.24-19.18,1.56-31.31.93-36.37l-.64-4.53c-.14-1.6,0-3.06.43-4.36.43-1.31,1.4-2.5,2.91-3.58,1.51-1.08,3.07-1.72,4.66-1.91,1.48-.18,2.9-.03,4.24.44,1.34.48,2.37,1.33,3.08,2.55.71,1.23,1.66,3.55,2.87,6.97,3.51,10.4,12.06,23.82,25.66,40.26,13.6,16.44,25.13,28.91,34.61,37.4Z"/>
      </g>
    </g>
    <path class="cls-7" d="M139.85,47.38h156.49l-59.57,117.05,101.11.13-211.87,244.28,60.93-155.66h-114.91L139.85,47.38Z"/>
    <g id="_图层_2" data-name="图层 2">
      <g>
        <path class="cls-3" d="M62.1,269.31c-.13-1.27,0-9.14.41-23.61.41-14.47.47-31.25.2-50.33-.27-19.09-.29-29.77-.04-32.04.24-2.27,1.07-4.19,2.48-5.75,1.41-1.56,3.77-2.52,7.07-2.86,2.1-.22,4.07.47,5.91,2.08,1.84,1.61,2.87,3.46,3.09,5.56.29,2.73.18,7.24-.31,13.53-.77,8.63-1.36,26.04-1.79,52.24-.43,26.2-.46,41.01-.1,44.44.23,2.23.73,3.7,1.48,4.42.75.73,2.05.99,3.89.8,2.99-.31,9.95-1.98,20.87-4.99,6.75-1.8,19.61-4.21,38.56-7.23,3.42-.49,7.57-1.66,12.45-3.53.93-.35,1.61-.55,2.06-.6,2.41-.25,4.41.34,5.97,1.78,1.56,1.44,2.46,3.28,2.7,5.5.38,3.62-.72,6.65-3.29,9.07-2.57,2.42-5.57,3.81-9.01,4.18-1.33.14-3.99.23-7.97.26-4.04.1-7.04.26-9.01.46-20.72,2.18-40.37,7.52-58.94,16.03-3.13,1.42-6,2.27-8.6,2.54-2.86.3-5.2-.71-7.02-3.02s-2.85-4.65-3.1-7c-.15-1.4.14-4.51.85-9.34.75-5.67,1.15-9.86,1.19-12.56Z"/>
        <path class="cls-3" d="M255.27,138.26c.62.38,1.07,1.91,1.35,4.58.29,2.73.22,4.83-.21,6.29l1.66,3.87c2.88,7.28,5.6,13.23,8.14,17.84,3.22,6.22,6.47,12.91,9.73,20.09,7.45,16.5,14.88,30.52,22.3,42.04,7.41,11.53,13.92,19.5,19.53,23.92,3.51,2.78,5.72,4.72,6.64,5.81.92,1.09,1.46,2.43,1.63,4.02.29,2.8-.4,5.26-2.07,7.4-1.67,2.14-3.81,3.34-6.42,3.61-8.14.85-19.33-10.92-33.59-35.31-5.7-9.62-9.03-14.38-9.98-14.28-3.05.32-9.52,1.93-19.4,4.83-9.88,2.9-18.85,6.03-26.92,9.38-4.61,1.96-7.56,3.01-8.83,3.15-1.59.17-3.32-.45-5.21-1.86-.35-.22-.74-.31-1.18-.26-1.4.15-3.98,4.6-7.75,13.35-6.19,14.47-10.15,23.12-11.87,25.97-1.73,2.85-3.8,4.4-6.21,4.65-1.72.18-3.89-.6-6.51-2.35-2.63-1.75-4.05-3.67-4.27-5.77-.21-2.03.64-4.9,2.57-8.61,1.92-3.7,5.86-11.17,11.81-22.4,10.63-19.94,19.4-38.54,26.33-55.78,10.93-27.43,18-43.67,21.19-48.73,3.19-5.06,5.78-7.69,7.75-7.9,4.19-.44,7.46.37,9.8,2.44ZM269.05,213.44c-2.76-4.85-7.01-13.82-12.75-26.9-6.22-13.93-10.13-22.39-11.73-25.37-2.72,7.74-7.03,18.76-12.91,33.07l-13.82,34.51c1.23-1.16,4.67-2.35,10.32-3.59,4.34-.9,8.09-1.88,11.26-2.92,16.98-5.32,26.86-8.25,29.63-8.8Z"/>
        <path class="cls-3" d="M374.26,196.5c-5.64-4.74-13.46-12.53-23.47-23.37-7.03-7.61-11.97-12.64-14.79-15.07-2.82-2.43-6.65-5.2-11.47-8.29-6.39-3.96-10.37-6.85-11.95-8.67-1.57-1.83-2.47-3.82-2.7-5.98-.11-1.02.74-2.47,2.53-4.36,1.79-1.89,3.51-2.92,5.17-3.1,3.88-.41,9.3,1.98,16.27,7.16,6.97,5.18,13.37,10.74,19.2,16.68,17.79,18.24,28.68,28.34,32.68,30.3,3.32-4.52,6.81-9.16,10.49-13.92,18.69-23.94,29.98-39.39,33.88-46.36,4.29-7.52,8.91-11.54,13.87-12.06,1.91-.2,3.49.55,4.77,2.25,1.27,1.7,2,3.47,2.2,5.31.18,1.72-1.83,5.66-6.04,11.82-4.2,6.16-15.48,21.03-33.82,44.61-8.83,11.34-13.95,18.59-15.35,21.76-1.4,3.17-2.14,12.02-2.22,26.55-.08,14.53-.01,25.9.21,34.1.14,5-.08,7.85-.64,8.55-.57.7-1.83,1.49-3.8,2.38-1.96.88-3.55,1.39-4.76,1.51-4.77.5-7.57-3.25-8.41-11.26-.52-4.96-.43-13.87.28-26.73.63-12.34.73-20.57.29-24.71-.38-3.62-1.18-6.65-2.4-9.1Z"/>
      </g>
    </g>
  </g>
</svg>